<svg width="100" height="100" viewBox="0 0 100 100" fill="none" xmlns="http://www.w3.org/2000/svg">
<path d="M50 100L0 20.3947C7.16667 14.0789 15 9.10088 23.5 5.46053C32 1.82017 40.8333 0 50 0C59.1667 0 68 1.82017 76.5 5.46053C85 9.10088 92.8333 14.0789 100 20.3947L50 100ZM50 85.9211L90.125 22.2368C84.125 18.114 77.75 14.693 71 11.9737C64.25 9.25439 57.25 7.89474 50 7.89474C42.75 7.89474 35.75 9.25439 29 11.9737C22.25 14.693 15.875 18.114 9.875 22.2368L50 85.9211ZM36.25 36.1842C38.1667 36.1842 39.7917 35.4825 41.125 34.0789C42.4583 32.6754 43.125 30.9649 43.125 28.9474C43.125 26.9298 42.4583 25.2193 41.125 23.8158C39.7917 22.4123 38.1667 21.7105 36.25 21.7105C34.3333 21.7105 32.7083 22.4123 31.375 23.8158C30.0417 25.2193 29.375 26.9298 29.375 28.9474C29.375 30.9649 30.0417 32.6754 31.375 34.0789C32.7083 35.4825 34.3333 36.1842 36.25 36.1842ZM50 64.4737C51.9167 64.4737 53.5417 63.7719 54.875 62.3684C56.2083 60.9649 56.875 59.2544 56.875 57.2368C56.875 55.2193 56.2083 53.5088 54.875 52.1053C53.5417 50.7018 51.9167 50 50 50C48.0833 50 46.4583 50.7018 45.125 52.1053C43.7917 53.5088 43.125 55.2193 43.125 57.2368C43.125 59.2544 43.7917 60.9649 45.125 62.3684C46.4583 63.7719 48.0833 64.4737 50 64.4737Z" fill="#FFF4FF"/>
</svg>
