<svg width="100" height="100" viewBox="0 0 100 100" fill="none" xmlns="http://www.w3.org/2000/svg">
<path d="M0 100V91.6667H88.75V100H0ZM20.9722 83.3333C15.1389 83.3333 10.1852 81.3194 6.11111 77.2917C2.03704 73.2639 0 68.3333 0 62.5V0H91.6667C93.9815 0 95.9491 0.810185 97.5694 2.43056C99.1898 4.05093 100 6.01852 100 8.33333V30.5556C100 32.8704 99.1898 34.838 97.5694 36.4583C95.9491 38.0787 93.9815 38.8889 91.6667 38.8889H78.3333V62.5C78.3333 68.3333 76.2963 73.2639 72.2222 77.2917C68.1481 81.3194 63.1944 83.3333 57.3611 83.3333H20.9722ZM20.9722 75H57.3611C60.6944 75 63.6343 73.7268 66.1806 71.1806C68.7269 68.6343 70 65.7407 70 62.5V8.33333H8.33333V62.5C8.33333 65.7407 9.62963 68.6343 12.2222 71.1806C14.8148 73.7268 17.7315 75 20.9722 75ZM78.3333 30.5556H91.6667V8.33333H78.3333V30.5556Z" fill="#FFF4FF"/>
</svg>
